<svg width="2022" height="551" viewBox="0 0 2022 551" fill="none" xmlns="http://www.w3.org/2000/svg">
<g clip-path="url(#clip0_49_2)">
<path d="M874.847 237.395H795.391L782.653 275H728.368L805.399 62.1044H865.446L942.477 275H887.585L874.847 237.395ZM861.504 197.363L835.119 119.422L809.038 197.363H861.504ZM1119.07 62.1044V103.652H1062.66V275H1010.8V103.652H954.397V62.1044H1119.07ZM1329.49 62.1044V275H1277.63V187.355H1196.96V275H1145.1V62.1044H1196.96V145.504H1277.63V62.1044H1329.49ZM1499.45 237.395H1420L1407.26 275H1352.97L1430 62.1044H1490.05L1567.08 275H1512.19L1499.45 237.395ZM1486.11 197.363L1459.73 119.422L1433.64 197.363H1486.11ZM1780.98 275H1729.12L1642.39 143.684V275H1590.53V62.1044H1642.39L1729.12 194.027V62.1044H1780.98V275ZM1959.9 129.43C1956.05 122.354 1950.49 116.996 1943.22 113.357C1936.14 109.516 1927.75 107.595 1918.04 107.595C1901.26 107.595 1887.82 113.155 1877.71 124.275C1867.6 135.192 1862.55 149.851 1862.55 168.249C1862.55 187.86 1867.8 203.226 1878.32 214.346C1889.03 225.264 1903.69 230.723 1922.29 230.723C1935.03 230.723 1945.74 227.488 1954.44 221.018C1963.33 214.548 1969.8 205.248 1973.85 193.117H1908.04V154.905H2020.85V203.125C2017.01 216.064 2010.44 228.094 2001.14 239.214C1992.04 250.334 1980.42 259.331 1966.26 266.205C1952.11 273.079 1936.14 276.516 1918.35 276.516C1897.32 276.516 1878.52 271.967 1861.94 262.869C1845.56 253.569 1832.72 240.73 1823.42 224.354C1814.33 207.977 1809.78 189.276 1809.78 168.249C1809.78 147.222 1814.33 128.521 1823.42 112.144C1832.72 95.5652 1845.56 82.7267 1861.94 73.6286C1878.32 64.3283 1897.02 59.6782 1918.04 59.6782C1943.52 59.6782 1964.95 65.8447 1982.34 78.1777C1999.93 90.5107 2011.55 107.595 2017.21 129.43H1959.9Z" fill="#0062FF"/>
<path d="M740.32 518.245V406.213H756.325V518.245H740.32ZM853.884 518.245V406.213H867.008L941.109 498.239H934.227V406.213H950.232V518.245H937.108L863.007 426.219H869.889V518.245H853.884ZM1062.19 459.188H1119.96V472.952H1062.19V459.188ZM1063.79 518.245H1047.78V406.213H1126.85V420.137H1063.79V518.245ZM1262.72 519.525C1254.18 519.525 1246.23 518.085 1238.87 515.204C1231.62 512.323 1225.32 508.322 1219.99 503.201C1214.65 497.973 1210.49 491.891 1207.5 484.956C1204.51 478.02 1203.02 470.445 1203.02 462.229C1203.02 454.013 1204.51 446.438 1207.5 439.503C1210.49 432.567 1214.65 426.539 1219.99 421.417C1225.32 416.189 1231.62 412.135 1238.87 409.254C1246.13 406.373 1254.07 404.933 1262.72 404.933C1271.25 404.933 1279.1 406.373 1286.24 409.254C1293.5 412.028 1299.79 416.029 1305.13 421.257C1310.57 426.379 1314.73 432.407 1317.61 439.343C1320.6 446.278 1322.09 453.907 1322.09 462.229C1322.09 470.551 1320.6 478.18 1317.61 485.116C1314.73 492.051 1310.57 498.133 1305.13 503.361C1299.79 508.482 1293.5 512.483 1286.24 515.364C1279.1 518.138 1271.25 519.525 1262.72 519.525ZM1262.72 505.281C1268.91 505.281 1274.61 504.214 1279.84 502.08C1285.18 499.947 1289.77 496.959 1293.61 493.118C1297.55 489.17 1300.59 484.582 1302.73 479.354C1304.97 474.126 1306.09 468.418 1306.09 462.229C1306.09 456.041 1304.97 450.332 1302.73 445.104C1300.59 439.876 1297.55 435.341 1293.61 431.5C1289.77 427.553 1285.18 424.512 1279.84 422.378C1274.61 420.244 1268.91 419.177 1262.72 419.177C1256.42 419.177 1250.61 420.244 1245.27 422.378C1240.04 424.512 1235.46 427.553 1231.51 431.5C1227.56 435.341 1224.47 439.876 1222.23 445.104C1220.09 450.332 1219.02 456.041 1219.02 462.229C1219.02 468.418 1220.09 474.126 1222.23 479.354C1224.47 484.582 1227.56 489.17 1231.51 493.118C1235.46 496.959 1240.04 499.947 1245.27 502.08C1250.61 504.214 1256.42 505.281 1262.72 505.281ZM1431.26 518.245V420.137H1392.85V406.213H1485.51V420.137H1447.1V518.245H1431.26ZM1581.53 454.547H1639.14V468.151H1581.53V454.547ZM1582.97 504.321H1648.27V518.245H1566.96V406.213H1646.03V420.137H1582.97V504.321ZM1788.14 519.525C1779.6 519.525 1771.71 518.138 1764.45 515.364C1757.3 512.483 1751.06 508.482 1745.73 503.361C1740.5 498.133 1736.39 492.051 1733.4 485.116C1730.41 478.18 1728.92 470.551 1728.92 462.229C1728.92 453.907 1730.41 446.278 1733.4 439.343C1736.39 432.407 1740.55 426.379 1745.89 421.257C1751.22 416.029 1757.46 412.028 1764.61 409.254C1771.87 406.373 1779.76 404.933 1788.3 404.933C1796.94 404.933 1804.89 406.426 1812.14 409.414C1819.51 412.295 1825.75 416.616 1830.87 422.378L1820.47 432.461C1816.2 427.979 1811.4 424.672 1806.06 422.538C1800.73 420.297 1795.02 419.177 1788.94 419.177C1782.64 419.177 1776.77 420.244 1771.33 422.378C1766 424.512 1761.36 427.499 1757.41 431.34C1753.46 435.181 1750.37 439.769 1748.13 445.104C1745.99 450.332 1744.93 456.041 1744.93 462.229C1744.93 468.418 1745.99 474.179 1748.13 479.514C1750.37 484.742 1753.46 489.277 1757.41 493.118C1761.36 496.959 1766 499.947 1771.33 502.08C1776.77 504.214 1782.64 505.281 1788.94 505.281C1795.02 505.281 1800.73 504.214 1806.06 502.08C1811.4 499.84 1816.2 496.426 1820.47 491.838L1830.87 501.92C1825.75 507.682 1819.51 512.057 1812.14 515.044C1804.89 518.032 1796.89 519.525 1788.14 519.525ZM1998.06 406.213H2014.07V518.245H1998.06V406.213ZM1933.72 518.245H1917.72V406.213H1933.72V518.245ZM1999.5 468.311H1932.12V454.387H1999.5V468.311Z" fill="#0062FF"/>
<path d="M654.673 512.906L654.664 512.887L581.079 315.18L581.071 315.153L570.896 287.808L570.887 287.781L567.727 279.28C596.876 254.573 615.373 217.702 615.373 176.508C615.373 102.136 555.085 41.8477 480.713 41.8477C480.265 41.8477 479.817 41.8477 479.366 41.8559H478.832C467.067 29.7361 453.042 19.8246 437.435 12.8008C435.078 11.7338 432.685 10.7437 430.254 9.80867C421.22 6.36826 411.729 3.86013 401.881 2.43007C395.465 1.48677 388.911 1 382.234 1C371.995 1 362.015 2.14955 352.439 4.31115H352.42C352.42 4.31115 352.401 4.3194 352.392 4.3194C342.778 6.49751 333.559 9.69591 324.853 13.8019H324.844C324.844 13.8019 324.825 13.8101 324.817 13.8211C320.628 15.7929 316.55 17.993 312.614 20.3774C288.075 35.2281 268.654 57.6884 257.637 84.4994L257.628 84.5187L254.562 92.7663L254.534 92.8516L184.249 281.684L150.211 281.458L122.886 281.279C96.1407 283.796 71.6783 294.128 51.8059 309.969C20.8422 334.637 1 372.672 1 415.34C1 472.804 36.9937 521.872 87.6703 541.2C96.6935 544.64 106.187 547.137 116.024 548.578C122.429 549.513 128.994 550 135.663 550C161.165 550 184.992 542.91 205.313 530.606H205.321C230.075 515.615 249.609 492.883 260.56 465.764L260.634 465.577L263.104 458.946L263.131 458.861L318.483 310.137L435.386 310.904H435.432L491.906 462.639C502.679 490.545 522.477 513.96 547.715 529.305C547.742 529.325 547.781 529.341 547.808 529.36L547.827 529.415C547.847 529.424 547.855 529.435 547.874 529.443V529.451H547.893C568.214 541.739 592.014 548.817 617.496 548.817C623.902 548.817 630.205 548.369 636.376 547.5C636.404 547.5 636.423 547.492 636.45 547.492C646.279 546.117 655.762 543.666 664.796 540.273C664.815 540.265 664.843 540.254 664.862 540.245L654.686 512.901L654.673 512.906ZM97.8403 513.822C58.2659 498.625 30.1816 460.266 30.1816 415.343C30.1816 360.824 71.5436 315.975 124.602 310.447L148.008 310.607L173.417 310.766L171.426 316.107L97.8403 513.825V513.822ZM309.988 249.326L298.261 280.85L287.431 309.941L263.725 373.634L234.943 450.962L234.186 452.992C219.036 492.652 180.63 520.807 135.649 520.807C132.563 520.807 129.514 520.678 126.505 520.406L197.425 329.852L204.449 310.973L207.9 301.696L215.279 281.89L254.163 177.396L282.93 100.106L282.949 100.068C283.315 99.0311 283.697 97.9916 284.098 96.9713L284.107 96.9438C293.674 72.7234 311.927 52.8977 335.044 41.3114C335.053 41.3031 335.072 41.3031 335.083 41.2921C343.677 36.9799 352.953 33.8118 362.689 31.9885C362.697 31.9885 362.716 31.9885 362.727 31.9802C369.058 30.8032 375.576 30.1761 382.253 30.1761C385.339 30.1761 388.397 30.3054 391.408 30.5776C401.433 31.4274 411.047 33.6908 420.07 37.1614C427.394 39.9666 434.321 43.5775 440.746 47.8787C430.262 51.1321 420.331 55.6313 411.121 61.2058C400.47 67.6494 390.773 75.5312 382.319 84.5847L382.281 84.6232C374.286 93.1788 367.394 102.782 361.847 113.203C361.847 113.203 361.847 113.211 361.839 113.211C361.839 113.219 361.831 113.23 361.82 113.249C359.798 117.017 357.967 120.889 356.322 124.863L352.824 134.241L320.488 221.134L309.996 249.328L309.988 249.326ZM396.378 281.494L329.299 281.054L336.285 262.276L346.477 234.876L352.659 218.277L376.778 153.462L376.805 153.396L377.421 155.04V155.068L377.44 155.123L416.531 260.167L416.55 260.205L416.558 260.213L418.475 265.375C418.475 265.375 418.456 265.384 418.437 265.384L424.495 281.673L396.375 281.486L396.378 281.494ZM617.483 519.628C572.988 519.628 534.918 492.08 519.443 453.091C519.144 452.351 518.855 451.603 518.574 450.847L518.349 450.231L489.445 372.575C489.437 372.614 489.417 372.65 489.406 372.688L489.368 372.575C489.376 372.537 489.387 372.509 489.406 372.471C489.415 372.452 489.426 372.435 489.426 372.416V372.408L466.6 311.11H466.572L466.311 310.398L455.698 281.884L454.51 278.694L445.523 254.548L435.218 226.857L394.082 116.332C394.082 116.332 394.101 116.305 394.109 116.294C409.369 94.3751 432.74 78.5316 459.878 73.0891C462.021 72.6601 464.18 72.2943 466.369 72.0138C471.063 71.3593 475.851 71.032 480.713 71.032C483.978 71.032 487.204 71.1806 490.391 71.4803C494.159 71.8076 497.863 72.3494 501.502 73.0781C549.791 82.7283 586.178 125.361 586.178 176.497C586.178 204.886 574.958 230.669 556.694 249.634L516.735 142.241L498.771 93.9791H467.658L487.184 146.441L504.326 192.525L532.559 268.357L542.836 295.99L544.651 300.88L544.67 300.918L555.154 329.074L555.173 329.121L625.945 519.281C623.159 519.507 620.335 519.619 617.491 519.619L617.483 519.628Z" fill="#0062FF"/>
</g>
<defs>
<clipPath id="clip0_49_2">
<rect width="2022" height="551" fill="white"/>
</clipPath>
</defs>
</svg>
